<?xml version="1.0" encoding="utf-8"?><svg viewBox="0 0 24 24" xmlns="http://www.w3.org/2000/svg" xmlns:xlink="http://www.w3.org/1999/xlink"><style>:root>svg{display:none}:root>svg:target{display:block}</style><svg fill="none" viewBox="0 0 18 18" id="alert-triangle" xmlns="http://www.w3.org/2000/svg"><path d="M7.718 2.895L1.365 13.5a1.5 1.5 0 001.283 2.25h12.705a1.5 1.5 0 001.282-2.25L10.283 2.895a1.5 1.5 0 00-2.565 0zM9 6.75v3M9 12.75h.008" stroke="currentColor" stroke-width="1.5" stroke-linecap="round" stroke-linejoin="round"/></svg><svg viewBox="0 0 24 24" id="appliances" xmlns="http://www.w3.org/2000/svg"><path fill="currentColor" d="M20 6c0 2-1.333 2-8 2S4 8 4 6s1.333-2 8-2 8 0 8 2zm-4 1a1 1 0 100-2 1 1 0 000 2zm-2-1a1 1 0 10-2 0 1 1 0 002 0zM7.908 8.968C8.985 9 10.331 9 11.985 9h.03c1.654 0 3 0 4.077-.032 1.07-.031 1.94-.095 2.617-.24C20 8.452 20 9 20 9.5v3c0 6.5 0 7.5-8 7.5s-8-1-8-7.5v-3c0-.5.001-1.048 1.29-.772.679.145 1.548.209 2.618.24zM15 14a3 3 0 10-6 0 3 3 0 006 0z"/></svg><svg fill="none" viewBox="0 0 14 15" id="arrow-down" xmlns="http://www.w3.org/2000/svg"><path d="M7 3.324v8.167M11.08 7.407l-4.083 4.084-4.083-4.084" stroke="currentColor" stroke-width="1.167" stroke-linecap="round" stroke-linejoin="round"/></svg><svg fill="none" viewBox="0 0 24 24" id="arrow-left" xmlns="http://www.w3.org/2000/svg"><path d="M19 12H5M12 19l-7-7 7-7" stroke="currentColor" stroke-width="2" stroke-linecap="round" stroke-linejoin="round"/></svg><svg fill="none" viewBox="0 0 18 18" id="arrow-right" xmlns="http://www.w3.org/2000/svg"><path d="M3.75 9h10.5M9 3.75L14.25 9 9 14.25" stroke="#030C1C" stroke-width="1.5" stroke-linecap="round" stroke-linejoin="round"/></svg><svg fill="none" viewBox="0 0 18 18" id="arrow-up" xmlns="http://www.w3.org/2000/svg"><path d="M9 14.25V3.75M3.75 9L9 3.75 14.25 9" stroke="#030C1C" stroke-width="1.5" stroke-linecap="round" stroke-linejoin="round"/></svg><svg viewBox="0 0 24 24" id="beauty-and-health" xmlns="http://www.w3.org/2000/svg"><path fill="currentColor" d="M16 5.237C16 4.002 15.023 3 13.818 3c-.737 0-1.411.376-1.818.957A2.232 2.232 0 0010.182 3C8.977 3 8 4.002 8 5.237 8 7.16 10.101 9 12 9c1.898 0 4-1.84 4-3.763zM7 9c-2 0-4 2.064-4 5 0 4.941 3.236 7 9 7 5.765 0 9-2.059 9-7 0-2.936-2-5-4-5s-3.154 1-5 1-3-1-5-1zm5 8c-1.657 0-3-.672-3-1.5s1.343-1.5 3-1.5 3 .672 3 1.5-1.343 1.5-3 1.5z"/></svg><svg viewBox="0 0 24 24" id="books" xmlns="http://www.w3.org/2000/svg"><path fill="currentColor" d="M17 21h-5c-8 0-8-1-8-9s0-9 7-9h6c2.5 0 3 .5 3 3v12c0 2.5-.5 3-3 3zm-8-2h9c1 0 1-.5 1-1.5s0-1.5-1-1.5H8c-.5 0-2 0-2 1s1 2 3 2zM8 7a1 1 0 001 1h6a1 1 0 100-2H9a1 1 0 00-1 1zm1 3a1 1 0 100 2h2a1 1 0 100-2H9z"/></svg><svg fill="none" viewBox="0 0 24 24" id="catalog" xmlns="http://www.w3.org/2000/svg"><path d="M3.5 12.001h18M3.5 6.001h18M3.5 18.001h12" stroke="currentColor" stroke-width="2" stroke-linecap="round" stroke-linejoin="round"/></svg><svg fill="none" viewBox="0 0 20 20" id="check" xmlns="http://www.w3.org/2000/svg"><path d="M16.665 5L7.5 14.167 3.332 10" stroke="currentColor" stroke-width="1.667" stroke-linecap="round" stroke-linejoin="round"/></svg><svg fill="none" viewBox="0 0 20 20" id="check-violet" xmlns="http://www.w3.org/2000/svg"><path d="M16.665 5L7.5 14.167 3.332 10" stroke="#844086" stroke-width="1.667" stroke-linecap="round" stroke-linejoin="round"/></svg><svg fill="none" viewBox="0 0 18 18" id="chevron-down-small" xmlns="http://www.w3.org/2000/svg"><path d="M6 7.875l3 3 3-3" stroke="currentColor" stroke-width="1.5" stroke-linecap="round" stroke-linejoin="round"/></svg><svg fill="none" viewBox="0 0 18 18" id="chevron-left" xmlns="http://www.w3.org/2000/svg"><path d="M11.25 13.5L6.75 9l4.5-4.5" stroke="currentColor" stroke-width="1.5" stroke-linecap="round" stroke-linejoin="round"/></svg><svg fill="none" viewBox="0 0 18 18" id="chevron-left-small" xmlns="http://www.w3.org/2000/svg"><path d="M10.5 12l-3-3 3-3" stroke="currentColor" stroke-width="1.5" stroke-linecap="round" stroke-linejoin="round"/></svg><svg fill="none" viewBox="0 0 18 18" id="chevron-right" xmlns="http://www.w3.org/2000/svg"><path d="M6.75 13.5l4.5-4.5-4.5-4.5" stroke="currentColor" stroke-width="1.5" stroke-linecap="round" stroke-linejoin="round"/></svg><svg fill="none" viewBox="0 0 18 18" id="chevron-right-small" xmlns="http://www.w3.org/2000/svg"><path d="M7.5 12l3-3-3-3" stroke="currentColor" stroke-width="1.5" stroke-linecap="round" stroke-linejoin="round"/></svg><svg fill="none" viewBox="0 0 18 18" id="chevron-up-small" xmlns="http://www.w3.org/2000/svg"><path d="M12 10.5l-3-3-3 3" stroke="#030C1C" stroke-width="1.5" stroke-linecap="round" stroke-linejoin="round"/></svg><svg viewBox="0 0 24 24" id="childrens-goods" xmlns="http://www.w3.org/2000/svg"><path fill="currentColor" d="M11.5 3c3.177 0 5.265 1 5.265 1.5 0 .58-.634.936-1.473 1.154.281.708.414 1.51.414 2.346 0 .608-.22.88-1.059 1-2.44.35-6.353 1.76-6.353 4.5 0 1.068.466 1.96 1.25 2.575.774.608 1.828.925 2.985.925 1.24 0 2.293-.583 3.022-1.271a4.66 4.66 0 00.872-1.106c.204-.367.342-.762.342-1.123 0-.276-.237-.5-.53-.5-.292 0-.53.224-.53.5 0 .139-.06.37-.22.659a3.658 3.658 0 01-.683.862c-.595.562-1.394.979-2.273.979-.96 0-1.76-.263-2.308-.694-.54-.424-.868-1.033-.868-1.806 0-1.165 1.023-2.047 2.705-2.658.687-.25 1.736-.456 2.61-.627.4-.079.763-.15 1.038-.215a21.041 21.041 0 002.285-.673c.574-.2.94-.327 1.42-.327C20.979 9 21 11 21 13s-.13 7-8.47 7C7.234 20 3 18.577 3 15.021c0-2.496 1.632-3.25 2.87-3.822C6.626 10.85 7 10.57 7 10c0-.771-.514-.888-.878-.97L6 9c-1.09-.285-2-.97-2-2 0-.45.364-.922 1-1 .907-.11 1.77-.366 2.483-1.08C8.613 3.784 9.813 3 11.5 3zM10 6a.98.98 0 00-1-1 .98.98 0 00-1 1c0 .552.415 1 1 1a.98.98 0 001-1z"/></svg><svg fill="none" viewBox="0 0 18 18" id="close" xmlns="http://www.w3.org/2000/svg"><path d="M13.5 4.5l-9 9M4.5 4.5l9 9" stroke="currentColor" stroke-width="1.5" stroke-linecap="round" stroke-linejoin="round"/></svg><svg viewBox="0 0 24 24" id="clothes" xmlns="http://www.w3.org/2000/svg"><path fill="currentColor" d="M6 15c0 4 .357 5 6 5s6-1 6-5c0-3.085-.136-3.886.202-4.263.21-.234.602-.305 1.322-.657 1.881-.92 1.881-1.08.47-3.58-.47-.833-1.41-2.5-3.291-2.5s-2.117.5-2.352 1c-.235.5-.47 1-2.351 1-1.87 0-2.113-.494-2.358-.992C9.395 4.506 9.147 4 7.212 4 5.416 4 4.476 5.667 4.006 6.5c-1.411 2.5-1.411 2.66.47 3.58.717.35 1.109.434 1.32.675.34.392.204 1.2.204 4.245zm7-6h1a1 1 0 110 2h-1a1 1 0 110-2z"/></svg><svg fill="none" viewBox="0 0 18 19" id="compare" xmlns="http://www.w3.org/2000/svg"><path d="M9 3.064v3m-6.75-1.5l13.5 3m-13.5 3l2.25-4.5 2.25 4.5m4.5 2.25l2.25-4.5 2.25 4.5m-14.25-1.5h6c0 1.5-1.5 3-3 3s-3-1.5-3-3zm9 2.25h6c0 1.5-1.5 3-3 3s-3-1.5-3-3z" stroke="currentColor" stroke-width="1.5" stroke-linecap="round" stroke-linejoin="round"/></svg><svg fill="none" viewBox="0 0 24 24" id="compare-big" xmlns="http://www.w3.org/2000/svg"><path d="M12 3.001v4m-9-2l18 4m-18 4l3-6 3 6m6 3l3-6 3 6m-19-2h8c0 2-2 4-4 4s-4-2-4-4zm12 3h8c0 2-2 4-4 4s-4-2-4-4z" stroke="currentColor" stroke-width="2" stroke-linecap="round" stroke-linejoin="round"/></svg><svg fill="none" viewBox="0 0 18 16" id="compare-fill" xmlns="http://www.w3.org/2000/svg"><path d="M7.5 9.907h-6c0 1.5 1.5 3 3 3s3-1.5 3-3zM16.5 12.157h-6c0 1.5 1.5 3 3 3s3-1.5 3-3z" fill="currentColor"/><path d="M9 1.657v3m-6.75-1.5l13.5 3m-13.5 3l2.25-4.5 2.25 4.5m4.5 2.25l2.25-4.5 2.25 4.5M1.5 9.907h6c0 1.5-1.5 3-3 3s-3-1.5-3-3zm9 2.25h6c0 1.5-1.5 3-3 3s-3-1.5-3-3z" stroke="currentColor" stroke-width="1.5" stroke-linecap="round" stroke-linejoin="round"/></svg><svg viewBox="0 0 24 24" id="construction-and-repair" xmlns="http://www.w3.org/2000/svg"><path fill="currentColor" d="M10.069 5.067c.527-.039 1.033-.06 1.516-.067 1.01-.012 1.225.25 1.443 1.487l.781 4.434c.283 1.604.303 2.174-1.04 2.535-.704.189-1.442.333-2.195.427-3.087.386-6.425-.008-6.57-3.904-.131-3.5 3.207-4.698 6.065-4.912zm7.581 5.673c-.392.471-.908.906-1.516 1.293-.862.548-1.008.537-1.201-.557l-.967-5.488c-.146-.827-.057-.898.652-.78.563.093 1.07.215 1.516.36.987.321 1.2 1.162 1.494 2.33l.022.086c.032.125.065.249.098.37.241.903.459 1.716-.098 2.385zM6.002 19.006c0-1.993.014-2.916.014-2.916.001-.143 0-.268-.002-.379-.011-.79-.011-.8.917-.606.887.185 1.834.184 2.724.1 1.426-.133 1.388 1.171 1.355 2.31-.005.166-.01.33-.01.485 0 3-.5 3-2.5 3-2.247 0-2.498 0-2.498-1.994zm7.704-4.778c1.465-.556 1.42 0 1.136.647-.284.648-.91 1.489-1.705 1.942-.796.453-1.137 0-1.137-.647 0-.648.293-1.406 1.706-1.942zm7.458-6.242l-1.85.364c-.427.083-.578-.214-.744-.85-.215-.822-.07-1 .43-1.126l1.836-.36a1 1 0 11.328 1.972z"/></svg><svg fill="none" viewBox="0 0 24 24" id="edit" xmlns="http://www.w3.org/2000/svg"><path d="M12 20h9M16.5 3.5a2.121 2.121 0 113 3L7 19l-4 1 1-4L16.5 3.5z" stroke="currentColor" stroke-width="2" stroke-linecap="round" stroke-linejoin="round"/></svg><svg viewBox="0 0 24 24" id="electronics" xmlns="http://www.w3.org/2000/svg"><path fill="currentColor" d="M6.002 8C6.002 3.002 7 3.002 11 3.002h2c4 0 5 0 5 4.998v1.229c0 2.092.002 5.706-.002 6.77C17.98 20.999 17 21 13 21h-2c-4 0-4.998-.001-4.998-5v-1.74C6 12.134 5.998 8.982 6.002 8zM10 6a1 1 0 001 1h2a1 1 0 100-2h-2a1 1 0 00-1 1zm2 13a1 1 0 100-2 1 1 0 000 2z"/></svg><svg fill="none" viewBox="0 0 24 24" id="facebook" xmlns="http://www.w3.org/2000/svg"><path d="M18 2.375h-3a5 5 0 00-5 5v3H7v4h3v8h4v-8h3l1-4h-4v-3a1 1 0 011-1h3v-4z" stroke="#fff" stroke-width="2" stroke-linecap="round" stroke-linejoin="round"/></svg><svg viewBox="0 0 24 24" id="food" xmlns="http://www.w3.org/2000/svg"><path fill="currentColor" d="M4 13.5C4 10 6 8 8.5 8c1.5 0 2 1 3.5 1s2-1 3.5-1C18 8 20 10 20 13.5S17 20 12 20s-8-3-8-6.5zm7.005-6.712c-1.37-.39-2.357-1.26-2.795-2.798-.534-1.871-.089-2.306 1.78-1.787 1.662.463 2.46 1.532 2.809 2.804.516 1.88.082 2.316-1.794 1.781z"/></svg><svg fill="none" viewBox="0 0 18 18" id="globe" xmlns="http://www.w3.org/2000/svg"><g clip-path="url(#bcclip0_1499_27078)" stroke="currentColor" stroke-width="1.5" stroke-linecap="round" stroke-linejoin="round"><path d="M9 16.5a7.5 7.5 0 100-15 7.5 7.5 0 000 15zM1.5 9h15"/><path d="M9 1.5A11.475 11.475 0 0112 9a11.475 11.475 0 01-3 7.5A11.475 11.475 0 016 9a11.475 11.475 0 013-7.5z"/></g><defs><clipPath id="bcclip0_1499_27078"><path fill="currentColor" d="M0 0h18v18H0z"/></clipPath></defs></svg><svg viewBox="0 0 24 24" id="goods-for-pets" xmlns="http://www.w3.org/2000/svg"><path fill="currentColor" d="M3.955 17.294c-1.234-1.38-1.462-4.24.81-5.358 1.39-.684 3.703-.927 5.668-.198.65.241 1.129.703 1.57.32.37-.32-.058-.847-.625-1.195C10.076 10.063 8 9.5 5 10.5c-1.299.433-1.416-.475-1.528-1.492-.112-1.017-.35-3.114-.465-4.149-.064-.579.29-.901 1.115-.581.32.124 1.026.906 1.383 1.045C6.775 5.817 6.91 5.16 8.278 5c1.137-.133 1.848.522 2.739-.172.368-.287.627-1.319.987-1.599.395-.308.948-.411 1.198.38.17.54.588 1.895.77 2.47.289.915.513 1.144 1.59 1.33 1.264.217 3.23.72 4.522 1.845 2.034 1.771 2.673 5.259.811 7.766-1.447 1.933-4.917 2.937-8.401 2.979-3.431.04-6.874-.852-8.539-2.705z"/></svg><svg fill="none" viewBox="0 0 24 24" id="grid" xmlns="http://www.w3.org/2000/svg"><path d="M10 3H3v7h7V3zM21 3h-7v7h7V3zM21 14h-7v7h7v-7zM10 14H3v7h7v-7z" stroke="currentColor" stroke-width="2" stroke-linecap="round" stroke-linejoin="round"/></svg><svg fill="none" viewBox="0 0 18 19" id="heart" xmlns="http://www.w3.org/2000/svg"><path d="M15.633 4.272a4.124 4.124 0 00-5.835 0l-.795.795-.795-.795a4.126 4.126 0 00-5.835 5.835l.795.795 5.835 5.835 5.835-5.835.795-.795a4.123 4.123 0 000-5.835z" stroke="currentColor" stroke-width="1.5" stroke-linecap="round" stroke-linejoin="round"/></svg><svg fill="none" viewBox="0 0 24 24" id="heart-big" xmlns="http://www.w3.org/2000/svg"><path d="M20.838 4.61a5.5 5.5 0 00-7.78 0l-1.06 1.06-1.06-1.06a5.501 5.501 0 00-7.78 7.78l1.06 1.06 7.78 7.78 7.78-7.78 1.06-1.06a5.5 5.5 0 000-7.78z" stroke="currentColor" stroke-width="2" stroke-linecap="round" stroke-linejoin="round"/></svg><svg fill="none" viewBox="0 0 18 17" id="heart-fill" xmlns="http://www.w3.org/2000/svg"><path d="M15.633 2.865a4.124 4.124 0 00-5.835 0l-.795.795-.795-.795A4.126 4.126 0 102.373 8.7l.795.795 5.835 5.835 5.835-5.835.795-.795a4.124 4.124 0 000-5.835z" fill="currentColor" stroke="currentColor" stroke-width="1.5" stroke-linecap="round" stroke-linejoin="round"/></svg><svg fill="none" viewBox="0 0 24 24" id="home" xmlns="http://www.w3.org/2000/svg"><path d="M3 9.001l9-7 9 7v11a2 2 0 01-2 2H5a2 2 0 01-2-2v-11z" stroke="#fff" stroke-width="2" stroke-linecap="round" stroke-linejoin="round"/><path d="M9 22.001v-10h6v10" stroke="#fff" stroke-width="2" stroke-linecap="round" stroke-linejoin="round"/></svg><svg fill="none" viewBox="0 0 24 24" id="hot" xmlns="http://www.w3.org/2000/svg"><path d="M21.002 14.5c0 4-2.925 8.5-9 8.5s-13-5.5-6-15c0 6.5 3.718 8.015 6 6 3.5-3.5-4-4.5 0-13 2 7 9 7.425 9 13.5z" stroke="currentColor" stroke-width="2" stroke-linejoin="round"/></svg><svg viewBox="0 0 24 24" id="house-and-garden" xmlns="http://www.w3.org/2000/svg"><path fill="currentColor" d="M5.038 4.96c.2 1.693.745 3.954 2.226 4.693 1.063.53 2.73.34 3.69.163.032.659.042 1.383.045 2.184H7.5c-3 0-2.778 1-2 4.5S7 21 12 21s5.722-1 6.5-4.5c.778-3.5 1-4.5-2-4.5H13c-.004-1.1-.02-2.114-.096-3.02-.098-1.172-.3-2.259-.759-3.177a4.452 4.452 0 00-2.553-2.2c-.854-.323-1.816-.49-2.644-.574-1.681-.172-2.086.42-1.909 1.931z"/><path fill="currentColor" d="M15.079 9.058c-.111-.762-.155-1.773.215-2.433.426-.759 1.494-1.22 2.322-1.475.884-.271 1.153-.263 1.305.78.11.762.155 1.773-.215 2.433-.443.79-1.581 1.257-2.422 1.505-.84.248-1.053.233-1.205-.81z"/></svg><svg fill="none" viewBox="0 0 12 12" id="info" xmlns="http://www.w3.org/2000/svg"><g clip-path="url(#blclip0_1499_54767)" stroke="currentColor" stroke-linecap="round" stroke-linejoin="round"><path d="M6 11A5 5 0 106 1a5 5 0 000 10zM6 8V6M6 4h.005"/></g><defs><clipPath id="blclip0_1499_54767"><path fill="#fff" d="M0 0h12v12H0z"/></clipPath></defs></svg><svg fill="none" viewBox="0 0 24 24" id="instagram" xmlns="http://www.w3.org/2000/svg"><path d="M17 2.375H7a5 5 0 00-5 5v10a5 5 0 005 5h10a5 5 0 005-5v-10a5 5 0 00-5-5z" stroke="#fff" stroke-width="2" stroke-linecap="round" stroke-linejoin="round"/><path d="M16.004 11.745A4 4 0 118.09 12.92a4 4 0 017.914-1.174zM17.5 6.875h.01" stroke="#fff" stroke-width="2" stroke-linecap="round" stroke-linejoin="round"/></svg><svg fill="none" viewBox="0 0 18 18" id="log-out" xmlns="http://www.w3.org/2000/svg"><path d="M6.75 15.75h-3a1.5 1.5 0 01-1.5-1.5V3.75a1.5 1.5 0 011.5-1.5h3M12 12.75L15.75 9 12 5.25M15.75 9h-9" stroke="currentColor" stroke-width="1.5" stroke-linecap="round" stroke-linejoin="round"/></svg><svg fill="none" viewBox="0 0 24 24" id="login-facebook" xmlns="http://www.w3.org/2000/svg"><g clip-path="url(#boclip0_2699_42819)"><path d="M12.5.094c6.627 0 12 5.372 12 12 0 5.99-4.388 10.954-10.125 11.854v-8.386h2.796l.532-3.468h-3.328V9.843c0-.95.465-1.874 1.956-1.874h1.513V5.016s-1.373-.235-2.686-.235c-2.742 0-4.533 1.662-4.533 4.669v2.644H7.578v3.469h3.047v8.385C4.888 23.048.5 18.083.5 12.094c0-6.628 5.373-12 12-12z" fill="#1877F2"/></g><defs><clipPath id="boclip0_2699_42819"><path fill="#fff" transform="translate(.5)" d="M0 0h24v24H0z"/></clipPath></defs></svg><svg fill="none" viewBox="0 0 24 24" id="login-google" xmlns="http://www.w3.org/2000/svg"><path d="M5.32 14.505l-.836 3.119-3.054.064A11.947 11.947 0 010 12.001c0-1.99.484-3.866 1.342-5.519l2.719.499 1.19 2.702a7.133 7.133 0 00-.384 2.318c0 .881.16 1.725.452 2.504z" fill="#FBBB00"/><path d="M23.789 9.759a12.022 12.022 0 01-.053 4.747 11.998 11.998 0 01-4.225 6.853l-3.425-.175-.485-3.026a7.152 7.152 0 003.078-3.652h-6.417V9.76H23.789z" fill="#518EF8"/><path d="M19.512 21.358A11.95 11.95 0 0112 24.002c-4.57 0-8.543-2.555-10.57-6.314l3.889-3.183a7.135 7.135 0 0010.284 3.654l3.91 3.2z" fill="#28B446"/><path d="M19.658 2.763l-3.887 3.182A7.138 7.138 0 005.25 9.682l-3.91-3.2H1.34A11.998 11.998 0 0111.999 0a11.95 11.95 0 017.66 2.763z" fill="#F14336"/></svg><svg fill="none" viewBox="0 0 18 18" id="mail" xmlns="http://www.w3.org/2000/svg"><path d="M3 3h12c.825 0 1.5.675 1.5 1.5v9c0 .825-.675 1.5-1.5 1.5H3c-.825 0-1.5-.675-1.5-1.5v-9C1.5 3.675 2.175 3 3 3z" stroke="currentColor" stroke-width="1.5" stroke-linecap="round" stroke-linejoin="round"/><path d="M16.5 4.5L9 9.75 1.5 4.5" stroke="currentColor" stroke-width="1.5" stroke-linecap="round" stroke-linejoin="round"/></svg><svg fill="none" viewBox="0 0 24 24" id="map-pin" xmlns="http://www.w3.org/2000/svg"><path d="M21 10c0 7-9 13-9 13s-9-6-9-13a9 9 0 1118 0z" stroke="currentColor" stroke-width="2" stroke-linecap="round" stroke-linejoin="round"/><path d="M12 13a3 3 0 100-6 3 3 0 000 6z" stroke="currentColor" stroke-width="2" stroke-linecap="round" stroke-linejoin="round"/></svg><svg fill="none" viewBox="0 0 18 19" id="message-circle" xmlns="http://www.w3.org/2000/svg"><path d="M15.75 9.44a6.285 6.285 0 01-.675 2.85 6.375 6.375 0 01-5.7 3.525 6.285 6.285 0 01-2.85-.675L2.25 16.564l1.425-4.274A6.285 6.285 0 013 9.44a6.375 6.375 0 013.525-5.7 6.285 6.285 0 012.85-.676h.375a6.36 6.36 0 016 6v.375z" stroke="#030C1C" stroke-width="1.5" stroke-linecap="round" stroke-linejoin="round"/></svg><svg fill="none" viewBox="0 0 18 18" id="minus" xmlns="http://www.w3.org/2000/svg"><path d="M3.75 9h10.5" stroke="currentColor" stroke-width="1.5" stroke-linecap="round" stroke-linejoin="round"/></svg><svg fill="none" viewBox="0 0 24 24" id="new" xmlns="http://www.w3.org/2000/svg"><path d="M11.16 3.297a1 1 0 011.68 0l1.311 2.027a1 1 0 001.049.434l2.36-.505a1 1 0 011.188 1.187l-.506 2.36a1 1 0 00.434 1.049l2.027 1.312a1 1 0 010 1.678l-2.026 1.312a1 1 0 00-.435 1.049l.505 2.36a1 1 0 01-1.187 1.188l-2.36-.506a1 1 0 00-1.049.434l-1.312 2.027a1 1 0 01-1.678 0l-1.312-2.026a1 1 0 00-1.049-.435l-2.36.505a1 1 0 01-1.188-1.187l.506-2.36a1 1 0 00-.434-1.049l-2.027-1.312a1 1 0 010-1.678l2.027-1.312A1 1 0 005.758 8.8l-.505-2.36A1 1 0 016.44 5.252l2.36.506a1 1 0 001.049-.434l1.312-2.027z" stroke="currentColor" stroke-width="2"/></svg><svg fill="none" viewBox="0 0 18 18" id="package" xmlns="http://www.w3.org/2000/svg"><path d="M12.375 7.457l-6.75-3.893M15.75 12.408v-6A1.5 1.5 0 0015 5.11l-5.25-3a1.5 1.5 0 00-1.5 0L3 5.11a1.5 1.5 0 00-.75 1.298v6A1.5 1.5 0 003 13.705l5.25 3a1.5 1.5 0 001.5 0l5.25-3a1.5 1.5 0 00.75-1.297z" stroke="currentColor" stroke-width="1.5" stroke-linecap="round" stroke-linejoin="round"/><path d="M2.453 5.627l6.548 3.787 6.547-3.787M9 16.967v-7.56" stroke="currentColor" stroke-width="1.5" stroke-linecap="round" stroke-linejoin="round"/></svg><svg fill="none" viewBox="0 0 18 18" id="percent" xmlns="http://www.w3.org/2000/svg"><path d="M14.25 3.75l-10.5 10.5M4.875 6.75a1.875 1.875 0 100-3.75 1.875 1.875 0 000 3.75zM13.125 15a1.875 1.875 0 100-3.75 1.875 1.875 0 000 3.75z" stroke="currentColor" stroke-width="1.5" stroke-linecap="round" stroke-linejoin="round"/></svg><svg viewBox="0 0 24 24" id="pharmacy" xmlns="http://www.w3.org/2000/svg"><path fill="currentColor" d="M6.07 7.744c.18-1.525.713-2.696 1.654-3.503C8.876 3.253 10.428 3 12 3c1.572 0 3.124.253 4.276 1.24.941.808 1.475 1.979 1.655 3.504C20.378 8.689 21 10.618 21 14c0 5.25-1.5 7-9 7s-9-1.75-9-7c0-3.382.622-5.311 3.07-6.256zm2.122-.521C9.247 7.07 10.504 7 12 7s2.753.07 3.808.223c-.187-.72-.491-1.17-.834-1.464C14.376 5.247 13.428 5 12 5c-1.428 0-2.376.247-2.974.76-.343.293-.647.742-.834 1.463zM12 11a1 1 0 00-1 1v1h-1a1 1 0 100 2h1v1a1 1 0 102 0v-1h1a1 1 0 100-2h-1v-1a1 1 0 00-1-1z"/></svg><svg fill="none" viewBox="0 0 18 18" id="phone" xmlns="http://www.w3.org/2000/svg"><g clip-path="url(#byclip0_2302_63494)"><path d="M16.498 12.69v2.25a1.499 1.499 0 01-1.635 1.5 14.843 14.843 0 01-6.472-2.302 14.625 14.625 0 01-4.5-4.5 14.842 14.842 0 01-2.303-6.503A1.5 1.5 0 013.081 1.5h2.25a1.5 1.5 0 011.5 1.29 9.63 9.63 0 00.525 2.108 1.5 1.5 0 01-.338 1.582l-.952.953a12 12 0 004.5 4.5l.952-.953a1.5 1.5 0 011.583-.337c.68.253 1.387.43 2.107.525a1.5 1.5 0 011.29 1.522z" stroke="currentColor" stroke-width="1.5" stroke-linecap="round" stroke-linejoin="round"/></g><defs><clipPath id="byclip0_2302_63494"><path fill="#fff" d="M0 0h18v18H0z"/></clipPath></defs></svg><svg fill="none" viewBox="0 0 24 24" id="play" xmlns="http://www.w3.org/2000/svg"><path d="M5 3l14 9-14 9V3z" stroke="currentColor" stroke-width="2" stroke-linecap="round" stroke-linejoin="round"/></svg><svg fill="none" viewBox="0 0 19 18" id="plus" xmlns="http://www.w3.org/2000/svg"><path d="M9.5 3.75v10.5M4.25 9h10.5" stroke="currentColor" stroke-width="1.5" stroke-linecap="round" stroke-linejoin="round"/></svg><svg fill="none" viewBox="0 0 24 24" id="rings" xmlns="http://www.w3.org/2000/svg"><g clip-path="url(#cbclip0_1641_48077)" stroke="currentColor" stroke-width="2"><circle cx="9" cy="9" r="8"/><circle cx="15" cy="15" r="8"/></g><defs><clipPath id="cbclip0_1641_48077"><path fill="#fff" d="M0 0h24v24H0z"/></clipPath></defs></svg><svg fill="none" viewBox="0 0 18 18" id="search" xmlns="http://www.w3.org/2000/svg"><path d="M8.25 14.25a6 6 0 100-12 6 6 0 000 12zM15.747 15.75l-3.263-3.263" stroke="currentColor" stroke-width="1.5" stroke-linecap="round" stroke-linejoin="round"/></svg><svg fill="none" viewBox="0 0 18 18" id="settings" xmlns="http://www.w3.org/2000/svg"><path d="M3 15.75V10.5M3 7.5V2.25M9 15.75V9M9 6V2.25M15 15.75V12M15 9V2.25M.75 10.5h4.5M6.75 6h4.5M12.75 12h4.5" stroke="currentColor" stroke-width="1.5" stroke-linecap="round" stroke-linejoin="round"/></svg><svg viewBox="0 0 24 24" id="shoes" xmlns="http://www.w3.org/2000/svg"><path fill="currentColor" d="M11 6c1.074 0 2.292.288 3.5.768.513.204.734.334.182.843l-.536.535a.5.5 0 00.708.708l.883-.884c.38-.381.427-.428.917-.136.46.274.346.486-.005.81l-.503.502a.5.5 0 00.708.708l.565-.566c.278-.278.724-.47 1.27 0C20.065 10.476 21 11.816 21 13v.5c0 1.066-.46 1.5-1.5 1.5H8c-.924 0-.992-.255-1.15-.848A16.66 16.66 0 006.808 14a4 4 0 00-1.017-1.791A4 4 0 004 11.192c-.073-.02-.14-.039-.203-.055-.744-.2-.796-.215-.796-1.137C3 7.994 3.513 7.97 4.594 7.994 4.72 7.997 4.854 8 5 8c.57 0 .748.358.952.772C6.23 9.335 6.558 10 8 10c1.648 0 1.781-1.207 1.902-2.295C10 6.812 10.09 6 11 6z"/><path fill="currentColor" d="M5.084 12.916c.288.288.518.65.676 1.084.24.662.17 1-.76 1h-.5c-.994 0-1.5-.505-1.5-1.5V13c0-1 .338-1 1-.76.434.158.796.388 1.084.676zM20 16H4c-.5 0-.75 0-.875.125S3 16.5 3 17c0 1 1 1 2 1h14c1 0 2 0 2-1 0-.5 0-.75-.125-.875S20.5 16 20 16z"/></svg><svg fill="none" viewBox="0 0 18 19" id="shopping-cart" xmlns="http://www.w3.org/2000/svg"><g clip-path="url(#cfclip0_1499_62772)" stroke="currentColor" stroke-width="1.5" stroke-linecap="round" stroke-linejoin="round"><path d="M6.75 17.314a.75.75 0 100-1.5.75.75 0 000 1.5zM15 17.314a.75.75 0 100-1.5.75.75 0 000 1.5zM.75 1.564h3l2.01 10.043a1.5 1.5 0 001.5 1.208h7.29a1.5 1.5 0 001.5-1.208l1.2-6.293H4.5"/></g><defs><clipPath id="cfclip0_1499_62772"><path fill="#fff" transform="translate(0 .814)" d="M0 0h18v18H0z"/></clipPath></defs></svg><svg fill="none" viewBox="0 0 24 24" id="shopping-cart-big" xmlns="http://www.w3.org/2000/svg"><g clip-path="url(#cgclip0_1641_53469)" stroke="currentColor" stroke-width="2" stroke-linecap="round" stroke-linejoin="round"><path d="M9 22.001a1 1 0 100-2 1 1 0 000 2zM20 22.001a1 1 0 100-2 1 1 0 000 2zM1 1.001h4l2.68 13.39a2 2 0 002 1.61h9.72a2 2 0 002-1.61l1.6-8.39H6"/></g><defs><clipPath id="cgclip0_1641_53469"><path fill="currentColor" transform="translate(0 .001)" d="M0 0h24v24H0z"/></clipPath></defs></svg><svg fill="none" viewBox="0 0 16 16" id="spinner" xmlns="http://www.w3.org/2000/svg"><path d="M15 8a7 7 0 11-7-7" stroke="#D0D5DD" stroke-width="2"/></svg><svg viewBox="0 0 24 24" id="sport-and-recreation" xmlns="http://www.w3.org/2000/svg"><path fill="currentColor" d="M16.1 4.104c-4.442-2.762-9.296.065-10.49 3.98-.493 1.616-.246 1.997 1.112 2.793l6.139 3.601c1.837 1.078 2.501 1.448 4.093-.277 2.552-2.766 3.187-7.583-.854-10.097zM11.629 16.22h.209c.511 0 1.345 0 .511-.525l-1.153-.727a5229.176 5229.176 0 01-4.927-3.104c-.57-.361-.66-.138-.498.288.089.233.183.454.272.665.367.861.664 1.56.226 2.235-.242.371-.968 1.274-1.594 2.038l-.074.09c-.882 1.075-.905 1.102.692 2.126 1.429.982 1.656.944 2.395-.255.5-.812 1.114-1.793 1.405-2.19.477-.649 1.562-.645 2.536-.642zM18.5 21c1.551 0 2.5-.949 2.5-2.5 0-1.551-.949-2.5-2.5-2.5-1.551 0-2.5.949-2.5 2.5 0 1.551.949 2.5 2.5 2.5z"/></svg><svg fill="none" viewBox="0 0 24 24" id="star" xmlns="http://www.w3.org/2000/svg"><path d="M12 2l3.09 6.26L22 9.27l-5 4.87 1.18 6.88L12 17.77l-6.18 3.25L7 14.14 2 9.27l6.91-1.01L12 2z" stroke="currentColor" stroke-width="2" stroke-linecap="round" stroke-linejoin="round"/></svg><svg fill="none" viewBox="0 0 18 19" id="star-fill" xmlns="http://www.w3.org/2000/svg"><path d="M9 2.314l2.318 4.695 5.182.758-3.75 3.652.885 5.16L9 14.143 4.365 16.58l.885-5.16L1.5 7.766l5.183-.758L9 2.314z" fill="#F79009" stroke="#F79009" stroke-width="1.5" stroke-linecap="round" stroke-linejoin="round"/></svg><svg fill="none" viewBox="0 0 24 24" id="star-fill-big" xmlns="http://www.w3.org/2000/svg"><path d="M12 2l3.09 6.26L22 9.27l-5 4.87 1.18 6.88L12 17.77l-6.18 3.25L7 14.14 2 9.27l6.91-1.01L12 2z" fill="#F2A143" stroke="#F2A143" stroke-width="2" stroke-linecap="round" stroke-linejoin="round"/></svg><svg fill="none" viewBox="0 0 24 24" id="star-fill-big-grey" xmlns="http://www.w3.org/2000/svg"><path d="M12 2l3.09 6.26L22 9.27l-5 4.87 1.18 6.88L12 17.77l-6.18 3.25L7 14.14 2 9.27l6.91-1.01L12 2z" fill="#D0D5DD" stroke="#D0D5DD" stroke-width="2" stroke-linecap="round" stroke-linejoin="round"/></svg><svg fill="none" viewBox="0 0 18 18" id="tag" xmlns="http://www.w3.org/2000/svg"><path d="M15.443 10.465l-5.378 5.377a1.5 1.5 0 01-2.122 0L1.5 9.407v-7.5H9l6.443 6.443a1.5 1.5 0 010 2.115zM5.25 5.657h.008" stroke="currentColor" stroke-width="1.5" stroke-linecap="round" stroke-linejoin="round"/></svg><svg viewBox="0 0 24 24" id="tourism-fishing-hunting" xmlns="http://www.w3.org/2000/svg"><path fill="currentColor" fill-rule="evenodd" d="M12.878 17c1.013-3.5 1.404-4.978 1.971-8 .563-3 1.054-2.5 1.054 1v6.927c0 2.033.08 2.033 2.109 2.033h3.163c.89 0 .976-.198.654-1.016l-4.408-11.21c-.732-1.861-.615-1.938-2.572-1.538-1.36.279-4.12.52-6.026.664-1.52.115-2.263.64-2.955 2.14-.981 2.123-2.474 5.39-3.126 7-1.19 2.936-1.014 4 1.013 4h6.082c2.534 0 2.747-.984 3.04-2z" clip-rule="evenodd"/></svg><svg fill="none" viewBox="0 0 18 18" id="trash" xmlns="http://www.w3.org/2000/svg"><path d="M2.25 4.5h13.5M14.25 4.5V15a1.5 1.5 0 01-1.5 1.5h-7.5a1.5 1.5 0 01-1.5-1.5V4.5M6 4.5V3a1.5 1.5 0 011.5-1.5h3A1.5 1.5 0 0112 3v1.5" stroke="currentColor" stroke-width="1.5" stroke-linecap="round" stroke-linejoin="round"/></svg><svg fill="none" viewBox="0 0 24 24" id="user" xmlns="http://www.w3.org/2000/svg"><path d="M20.5 21v-2a4 4 0 00-4-4h-8a4 4 0 00-4 4v2M12.5 11a4 4 0 100-8 4 4 0 000 8z" stroke="currentColor" stroke-width="2" stroke-linecap="round" stroke-linejoin="round"/></svg><svg fill="none" viewBox="0 0 24 24" id="youtube" xmlns="http://www.w3.org/2000/svg"><path d="M22.54 5.506a3.983 3.983 0 00-.7-1.631c-.341-.454-.769-.784-1.24-.957-1.72-.543-8.6-.543-8.6-.543s-6.88 0-8.6.595c-.47.172-.897.502-1.238.957a3.984 3.984 0 00-.701 1.63A48.274 48.274 0 001 12.401c-.012 2.312.142 4.62.46 6.895.13.595.378 1.136.718 1.571.34.435.76.75 1.222.913 1.72.595 8.6.595 8.6.595s6.88 0 8.6-.595c.47-.172.898-.502 1.238-.957.34-.454.583-1.016.702-1.63.312-2.242.466-4.515.46-6.792a48.283 48.283 0 00-.46-6.895z" stroke="#fff" stroke-width="2" stroke-linecap="round" stroke-linejoin="round"/><path d="M9.75 15.396l5.75-3.27-5.75-3.27v6.54z" stroke="#fff" stroke-width="2" stroke-linecap="round" stroke-linejoin="round"/></svg></svg>